<?xml version="1.0" encoding="UTF-8"?>
<svg xmlns="http://www.w3.org/2000/svg" xmlns:xlink="http://www.w3.org/1999/xlink" width="667pt" height="384pt" viewBox="0 0 667 384" version="1.1">
<defs>
<filter id="alpha" filterUnits="objectBoundingBox" x="0%" y="0%" width="100%" height="100%">
  <feColorMatrix type="matrix" in="SourceGraphic" values="0 0 0 0 1 0 0 0 0 1 0 0 0 0 1 0 0 0 1 0"/>
</filter>
<mask id="mask0">
  <g filter="url(#alpha)">
<rect x="0" y="0" width="667" height="384" style="fill:rgb(0%,0%,0%);fill-opacity:0.101961;stroke:none;"/>
  </g>
</mask>
<clipPath id="clip1">
  <rect width="667" height="384"/>
</clipPath>
<g id="surface6" clip-path="url(#clip1)">
<path style=" stroke:none;fill-rule:nonzero;fill:rgb(0%,0%,0%);fill-opacity:1;" d="M 291.847656 236.652344 L 29.519531 236.652344 L 29.519531 29.167969 Z M 291.847656 236.652344 "/>
</g>
<mask id="mask1">
  <g filter="url(#alpha)">
<rect x="0" y="0" width="667" height="384" style="fill:rgb(0%,0%,0%);fill-opacity:0.101961;stroke:none;"/>
  </g>
</mask>
<clipPath id="clip2">
  <rect width="667" height="384"/>
</clipPath>
<g id="surface9" clip-path="url(#clip2)">
<path style=" stroke:none;fill-rule:nonzero;fill:rgb(0%,0%,0%);fill-opacity:1;" d="M 612.984375 286.007812 L 612.984375 308.355469 C 612.988281 317.476562 605.601562 324.871094 596.496094 324.871094 L 515.261719 324.871094 C 506.152344 324.871094 498.769531 317.476562 498.769531 308.355469 L 498.769531 195.671875 L 567.207031 249.800781 L 568.378906 250.726562 L 581.109375 260.792969 L 582.300781 261.738281 Z M 612.984375 286.007812 "/>
</g>
</defs>
<g id="surface1">
<path style=" stroke:none;fill-rule:nonzero;fill:rgb(94.901961%,94.901961%,94.901961%);fill-opacity:1;" d="M 179.234375 305.890625 C 179.234375 325.070312 163.703125 340.621094 144.542969 340.621094 C 125.382812 340.621094 109.847656 325.070312 109.847656 305.890625 C 109.847656 286.707031 125.382812 271.15625 144.542969 271.15625 C 163.703125 271.15625 179.234375 286.707031 179.234375 305.890625 Z M 179.234375 305.890625 "/>
<path style=" stroke:none;fill-rule:nonzero;fill:rgb(90.980392%,57.647059%,69.411765%);fill-opacity:1;" d="M 184.875 300.808594 C 184.875 319.988281 169.34375 335.539062 150.183594 335.539062 C 131.023438 335.539062 115.492188 319.988281 115.492188 300.808594 C 115.492188 281.625 131.023438 266.074219 150.183594 266.074219 C 169.34375 266.074219 184.875 281.625 184.875 300.808594 Z M 184.875 300.808594 "/>
<path style=" stroke:none;fill-rule:nonzero;fill:rgb(24.705882%,23.921569%,33.72549%);fill-opacity:1;" d="M 178.125 262.375 L 607.367188 262.375 L 607.367188 263.550781 L 178.125 263.550781 Z M 178.125 262.375 "/>
<path style=" stroke:none;fill-rule:nonzero;fill:rgb(24.705882%,23.921569%,33.72549%);fill-opacity:1;" d="M 400.429688 10.933594 L 248.074219 10.933594 L 248.074219 7.792969 L 178.992188 7.792969 L 178.992188 10.933594 L 26.007812 10.933594 C 20.316406 10.933594 15.699219 15.554688 15.699219 21.253906 L 15.699219 230.109375 C 15.699219 235.808594 20.316406 240.425781 26.007812 240.425781 L 400.429688 240.425781 C 406.121094 240.425781 410.734375 235.808594 410.734375 230.109375 L 410.734375 21.253906 C 410.734375 15.554688 406.121094 10.933594 400.429688 10.933594 Z M 400.429688 10.933594 "/>
<path style=" stroke:none;fill-rule:nonzero;fill:rgb(90.980392%,57.647059%,69.411765%);fill-opacity:1;" d="M 29.519531 29.167969 L 396.917969 29.167969 L 396.917969 236.652344 L 29.519531 236.652344 Z M 29.519531 29.167969 "/>
<path style=" stroke:none;fill-rule:nonzero;fill:rgb(90.980392%,57.647059%,69.411765%);fill-opacity:1;" d="M 216.671875 19.738281 C 216.671875 21.820312 214.984375 23.511719 212.90625 23.511719 C 210.824219 23.511719 209.136719 21.820312 209.136719 19.738281 C 209.136719 17.652344 210.824219 15.964844 212.90625 15.964844 C 214.984375 15.964844 216.671875 17.652344 216.671875 19.738281 Z M 216.671875 19.738281 "/>
<use xlink:href="#surface6" mask="url(#mask0)"/>
<path style=" stroke:none;fill-rule:nonzero;fill:rgb(94.901961%,94.901961%,94.901961%);fill-opacity:1;" d="M 122.320312 185.773438 C 122.320312 205.296875 106.507812 221.128906 87.003906 221.128906 C 67.5 221.128906 51.6875 205.296875 51.6875 185.773438 C 51.6875 166.246094 67.5 150.417969 87.003906 150.417969 C 106.507812 150.417969 122.320312 166.246094 122.320312 185.773438 Z M 122.320312 185.773438 "/>
<path style=" stroke:none;fill-rule:nonzero;fill:rgb(24.705882%,23.921569%,33.72549%);fill-opacity:1;" d="M 298.628906 141.066406 L 332.949219 141.066406 L 332.949219 148.246094 L 298.628906 148.246094 Z M 298.628906 141.066406 "/>
<path style=" stroke:none;fill-rule:nonzero;fill:rgb(24.705882%,23.921569%,33.72549%);fill-opacity:1;" d="M 257.136719 85.171875 L 374.4375 85.171875 L 374.4375 88.246094 L 257.136719 88.246094 Z M 257.136719 85.171875 "/>
<path style=" stroke:none;fill-rule:nonzero;fill:rgb(24.705882%,23.921569%,33.72549%);fill-opacity:1;" d="M 257.136719 94.914062 L 374.4375 94.914062 L 374.4375 97.992188 L 257.136719 97.992188 Z M 257.136719 94.914062 "/>
<path style=" stroke:none;fill-rule:nonzero;fill:rgb(24.705882%,23.921569%,33.72549%);fill-opacity:1;" d="M 257.136719 104.65625 L 374.4375 104.65625 L 374.4375 107.734375 L 257.136719 107.734375 Z M 257.136719 104.65625 "/>
<path style=" stroke:none;fill-rule:nonzero;fill:rgb(24.705882%,23.921569%,33.72549%);fill-opacity:1;" d="M 257.136719 114.402344 L 374.4375 114.402344 L 374.4375 117.476562 L 257.136719 117.476562 Z M 257.136719 114.402344 "/>
<path style=" stroke:none;fill-rule:nonzero;fill:rgb(24.705882%,23.921569%,33.72549%);fill-opacity:1;" d="M 257.136719 124.144531 L 374.4375 124.144531 L 374.4375 127.222656 L 257.136719 127.222656 Z M 257.136719 124.144531 "/>
<path style=" stroke:none;fill-rule:nonzero;fill:rgb(94.901961%,94.901961%,94.901961%);fill-opacity:1;" d="M 360.097656 33.378906 L 374.4375 33.378906 L 374.4375 47.738281 L 360.097656 47.738281 Z M 360.097656 33.378906 "/>
<path style=" stroke:none;fill-rule:nonzero;fill:rgb(24.705882%,23.921569%,33.72549%);fill-opacity:1;" d="M 381.097656 54.402344 L 363.683594 54.402344 L 363.683594 36.96875 L 381.097656 36.96875 Z M 364.4375 53.644531 L 380.339844 53.644531 L 380.339844 37.726562 L 364.4375 37.726562 Z M 364.4375 53.644531 "/>
<path style=" stroke:none;fill-rule:nonzero;fill:rgb(24.705882%,23.921569%,33.72549%);fill-opacity:1;" d="M 421.050781 232.882812 L 385.195312 232.882812 L 385.195312 230.292969 C 385.195312 230.011719 384.964844 229.78125 384.683594 229.78125 L 372.390625 229.78125 C 372.105469 229.78125 371.878906 230.011719 371.878906 230.292969 L 371.878906 232.882812 L 364.195312 232.882812 L 364.195312 230.292969 C 364.195312 230.011719 363.964844 229.78125 363.683594 229.78125 L 351.386719 229.78125 C 351.105469 229.78125 350.875 230.011719 350.875 230.292969 L 350.875 232.882812 L 343.191406 232.882812 L 343.191406 230.292969 C 343.191406 230.011719 342.964844 229.78125 342.679688 229.78125 L 330.386719 229.78125 C 330.105469 229.78125 329.875 230.011719 329.875 230.292969 L 329.875 232.882812 L 322.191406 232.882812 L 322.191406 230.292969 C 322.191406 230.011719 321.960938 229.78125 321.679688 229.78125 L 309.386719 229.78125 C 309.101562 229.78125 308.875 230.011719 308.875 230.292969 L 308.875 232.882812 L 301.191406 232.882812 L 301.191406 230.292969 C 301.191406 230.011719 300.960938 229.78125 300.679688 229.78125 L 288.382812 229.78125 C 288.101562 229.78125 287.871094 230.011719 287.871094 230.292969 L 287.871094 232.882812 L 280.1875 232.882812 L 280.1875 230.292969 C 280.1875 230.011719 279.960938 229.78125 279.675781 229.78125 L 267.382812 229.78125 C 267.101562 229.78125 266.871094 230.011719 266.871094 230.292969 L 266.871094 232.882812 L 259.1875 232.882812 L 259.1875 230.292969 C 259.1875 230.011719 258.957031 229.78125 258.675781 229.78125 L 162.375 229.78125 C 162.09375 229.78125 161.863281 230.011719 161.863281 230.292969 L 161.863281 232.882812 L 154.179688 232.882812 L 154.179688 230.292969 C 154.179688 230.011719 153.953125 229.78125 153.667969 229.78125 L 141.375 229.78125 C 141.09375 229.78125 140.863281 230.011719 140.863281 230.292969 L 140.863281 232.882812 L 133.179688 232.882812 L 133.179688 230.292969 C 133.179688 230.011719 132.949219 229.78125 132.667969 229.78125 L 120.375 229.78125 C 120.089844 229.78125 119.863281 230.011719 119.863281 230.292969 L 119.863281 232.882812 L 112.179688 232.882812 L 112.179688 230.292969 C 112.179688 230.011719 111.949219 229.78125 111.664062 229.78125 L 99.371094 229.78125 C 99.089844 229.78125 98.859375 230.011719 98.859375 230.292969 L 98.859375 232.882812 L 91.175781 232.882812 L 91.175781 230.292969 C 91.175781 230.011719 90.949219 229.78125 90.664062 229.78125 L 78.371094 229.78125 C 78.089844 229.78125 77.859375 230.011719 77.859375 230.292969 L 77.859375 232.882812 L 70.175781 232.882812 L 70.175781 230.292969 C 70.175781 230.011719 69.945312 229.78125 69.664062 229.78125 L 57.371094 229.78125 C 57.085938 229.78125 56.855469 230.011719 56.855469 230.292969 L 56.855469 232.882812 L 49.175781 232.882812 L 49.175781 230.292969 C 49.175781 230.011719 48.945312 229.78125 48.660156 229.78125 L 36.367188 229.78125 C 36.085938 229.78125 35.855469 230.011719 35.855469 230.292969 L 35.855469 232.882812 L 12.292969 232.882812 C 5.503906 232.882812 0 238.390625 0 245.1875 L 0 250.753906 C 0 257.550781 5.503906 263.0625 12.292969 263.0625 L 421.050781 263.0625 C 427.839844 263.0625 433.34375 257.550781 433.34375 250.753906 L 433.34375 245.1875 C 433.34375 238.390625 427.839844 232.882812 421.050781 232.882812 Z M 421.050781 232.882812 "/>
<path style=" stroke:none;fill-rule:nonzero;fill:rgb(24.705882%,23.921569%,33.72549%);fill-opacity:1;" d="M 95.554688 207.855469 C 70.972656 207.855469 51.046875 187.90625 51.046875 163.296875 C 51.046875 138.691406 70.972656 118.742188 95.554688 118.742188 C 120.132812 118.742188 140.058594 138.691406 140.058594 163.296875 C 140.03125 187.894531 120.121094 207.828125 95.554688 207.855469 Z M 95.554688 119.914062 C 71.621094 119.914062 52.21875 139.339844 52.21875 163.296875 C 52.21875 187.257812 71.621094 206.683594 95.554688 206.683594 C 119.488281 206.683594 138.886719 187.257812 138.886719 163.296875 C 138.859375 139.351562 119.476562 119.941406 95.554688 119.914062 Z M 95.554688 119.914062 "/>
<path style=" stroke:none;fill-rule:nonzero;fill:rgb(24.705882%,23.921569%,33.72549%);fill-opacity:1;" d="M 343.261719 19.078125 L 492.589844 19.078125 L 492.589844 20.25 L 343.261719 20.25 Z M 343.261719 19.078125 "/>
<path style=" stroke:none;fill-rule:nonzero;fill:rgb(24.705882%,23.921569%,33.72549%);fill-opacity:1;" d="M 237.855469 328.625 L 667.101562 328.625 L 667.101562 329.796875 L 237.855469 329.796875 Z M 237.855469 328.625 "/>
<path style=" stroke:none;fill-rule:nonzero;fill:rgb(24.705882%,23.921569%,33.72549%);fill-opacity:1;" d="M 112.828125 382.558594 L 262.15625 382.558594 L 262.15625 383.730469 L 112.828125 383.730469 Z M 112.828125 382.558594 "/>
<path style=" stroke:none;fill-rule:nonzero;fill:rgb(90.980392%,57.647059%,69.411765%);fill-opacity:1;" d="M 275.816406 322.441406 L 292.214844 322.441406 L 292.214844 338.859375 L 275.816406 338.859375 Z M 275.816406 322.441406 "/>
<path style=" stroke:none;fill-rule:nonzero;fill:rgb(24.705882%,23.921569%,33.72549%);fill-opacity:1;" d="M 302.171875 329.476562 L 282.261719 329.476562 L 282.261719 309.546875 L 302.171875 309.546875 Z M 283.125 328.609375 L 301.304688 328.609375 L 301.304688 310.410156 L 283.125 310.410156 Z M 283.125 328.609375 "/>
<path style=" stroke:none;fill-rule:nonzero;fill:rgb(90.980392%,57.647059%,69.411765%);fill-opacity:1;" d="M 466.140625 12.898438 L 482.535156 12.898438 L 482.535156 29.3125 L 466.140625 29.3125 Z M 466.140625 12.898438 "/>
<path style=" stroke:none;fill-rule:nonzero;fill:rgb(24.705882%,23.921569%,33.72549%);fill-opacity:1;" d="M 492.492188 19.933594 L 472.582031 19.933594 L 472.582031 0 L 492.492188 0 Z M 473.445312 19.066406 L 491.625 19.066406 L 491.625 0.867188 L 473.445312 0.867188 Z M 473.445312 19.066406 "/>
<path style=" stroke:none;fill-rule:nonzero;fill:rgb(90.980392%,57.647059%,69.411765%);fill-opacity:1;" d="M 631.277344 322.441406 L 647.675781 322.441406 L 647.675781 338.859375 L 631.277344 338.859375 Z M 631.277344 322.441406 "/>
<path style=" stroke:none;fill-rule:nonzero;fill:rgb(24.705882%,23.921569%,33.72549%);fill-opacity:1;" d="M 657.628906 329.476562 L 637.71875 329.476562 L 637.71875 309.546875 L 657.628906 309.546875 Z M 638.585938 328.609375 L 656.765625 328.609375 L 656.765625 310.410156 L 638.585938 310.410156 Z M 638.585938 328.609375 "/>
<path style=" stroke:none;fill-rule:nonzero;fill:rgb(24.705882%,23.921569%,33.72549%);fill-opacity:1;" d="M 619.082031 135.988281 L 617.6875 135.988281 L 617.6875 97.785156 C 617.6875 85.574219 607.800781 75.675781 595.601562 75.675781 L 514.757812 75.675781 C 502.5625 75.675781 492.671875 85.574219 492.671875 97.785156 L 492.671875 307.363281 C 492.671875 319.574219 502.5625 329.472656 514.757812 329.472656 L 595.601562 329.472656 C 607.800781 329.472656 617.6875 319.574219 617.6875 307.363281 L 617.6875 163.179688 L 619.082031 163.179688 Z M 619.082031 135.988281 "/>
<path style=" stroke:none;fill-rule:nonzero;fill:rgb(90.980392%,57.647059%,69.411765%);fill-opacity:1;" d="M 612.984375 99.085938 L 612.984375 308.355469 C 612.988281 317.476562 605.601562 324.871094 596.496094 324.871094 L 515.261719 324.871094 C 506.152344 324.871094 498.769531 317.476562 498.769531 308.355469 L 498.769531 99.085938 C 498.769531 89.96875 506.152344 82.578125 515.261719 82.578125 L 525.117188 82.578125 C 524.128906 84.996094 524.414062 87.746094 525.867188 89.914062 C 527.324219 92.082031 529.761719 93.382812 532.371094 93.382812 L 578.6875 93.382812 C 581.296875 93.382812 583.734375 92.082031 585.1875 89.914062 C 586.644531 87.746094 586.925781 84.996094 585.941406 82.578125 L 596.496094 82.578125 C 605.601562 82.578125 612.984375 89.96875 612.984375 99.085938 Z M 612.984375 99.085938 "/>
<path style=" stroke:none;fill-rule:nonzero;fill:rgb(24.705882%,23.921569%,33.72549%);fill-opacity:1;" d="M 543.777344 220.5625 L 567.976562 220.5625 L 567.976562 227.742188 L 543.777344 227.742188 Z M 543.777344 220.5625 "/>
<path style=" stroke:none;fill-rule:nonzero;fill:rgb(24.705882%,23.921569%,33.72549%);fill-opacity:1;" d="M 514.523438 164.664062 L 597.230469 164.664062 L 597.230469 167.742188 L 514.523438 167.742188 Z M 514.523438 164.664062 "/>
<path style=" stroke:none;fill-rule:nonzero;fill:rgb(24.705882%,23.921569%,33.72549%);fill-opacity:1;" d="M 514.523438 174.410156 L 597.230469 174.410156 L 597.230469 177.484375 L 514.523438 177.484375 Z M 514.523438 174.410156 "/>
<path style=" stroke:none;fill-rule:nonzero;fill:rgb(24.705882%,23.921569%,33.72549%);fill-opacity:1;" d="M 514.523438 184.152344 L 597.230469 184.152344 L 597.230469 187.230469 L 514.523438 187.230469 Z M 514.523438 184.152344 "/>
<path style=" stroke:none;fill-rule:nonzero;fill:rgb(24.705882%,23.921569%,33.72549%);fill-opacity:1;" d="M 514.523438 193.894531 L 597.230469 193.894531 L 597.230469 196.972656 L 514.523438 196.972656 Z M 514.523438 193.894531 "/>
<path style=" stroke:none;fill-rule:nonzero;fill:rgb(24.705882%,23.921569%,33.72549%);fill-opacity:1;" d="M 514.523438 203.640625 L 597.230469 203.640625 L 597.230469 206.714844 L 514.523438 206.714844 Z M 514.523438 203.640625 "/>
<path style=" stroke:none;fill-rule:nonzero;fill:rgb(94.901961%,94.901961%,94.901961%);fill-opacity:1;" d="M 544.425781 123.804688 L 558.765625 123.804688 L 558.765625 138.164062 L 544.425781 138.164062 Z M 544.425781 123.804688 "/>
<path style=" stroke:none;fill-rule:nonzero;fill:rgb(24.705882%,23.921569%,33.72549%);fill-opacity:1;" d="M 549.914062 127.394531 L 549.914062 144.832031 L 567.332031 144.832031 L 567.332031 127.394531 Z M 566.574219 144.074219 L 550.667969 144.074219 L 550.667969 128.152344 L 566.574219 128.152344 Z M 566.574219 144.074219 "/>
<use xlink:href="#surface9" mask="url(#mask1)"/>
<path style=" stroke:none;fill-rule:nonzero;fill:rgb(94.901961%,94.901961%,94.901961%);fill-opacity:1;" d="M 574.539062 292.371094 C 574.539062 306.574219 563.039062 318.089844 548.851562 318.089844 C 534.664062 318.089844 523.160156 306.574219 523.160156 292.371094 C 523.160156 278.167969 534.664062 266.652344 548.851562 266.652344 C 563.039062 266.652344 574.539062 278.167969 574.539062 292.371094 Z M 574.539062 292.371094 "/>
<path style=" stroke:none;fill-rule:nonzero;fill:rgb(24.705882%,23.921569%,33.72549%);fill-opacity:1;" d="M 187.492188 383.730469 C 159.355469 383.730469 136.546875 360.898438 136.546875 332.726562 C 136.546875 304.558594 159.355469 281.722656 187.492188 281.722656 C 215.628906 281.722656 238.441406 304.558594 238.441406 332.726562 C 238.410156 360.882812 215.617188 383.699219 187.492188 383.730469 Z M 187.492188 282.894531 C 160.003906 282.894531 137.714844 305.207031 137.714844 332.726562 C 137.714844 360.25 160.003906 382.558594 187.492188 382.558594 C 214.984375 382.558594 237.269531 360.25 237.269531 332.726562 C 237.238281 305.21875 214.96875 282.925781 187.492188 282.894531 Z M 187.492188 282.894531 "/>
<path style=" stroke:none;fill-rule:nonzero;fill:rgb(24.705882%,23.921569%,33.72549%);fill-opacity:1;" d="M 556.421875 312.207031 C 538.632812 312.207031 524.214844 297.773438 524.214844 279.964844 C 524.214844 262.15625 538.632812 247.71875 556.421875 247.71875 C 574.210938 247.71875 588.628906 262.15625 588.628906 279.964844 C 588.609375 297.765625 574.203125 312.1875 556.421875 312.207031 Z M 556.421875 248.890625 C 539.28125 248.890625 525.386719 262.804688 525.386719 279.964844 C 525.386719 297.125 539.28125 311.035156 556.421875 311.035156 C 573.5625 311.035156 587.457031 297.125 587.457031 279.964844 C 587.4375 262.8125 573.554688 248.910156 556.421875 248.890625 Z M 556.421875 248.890625 "/>
</g>
</svg>
