<?xml version="1.0" encoding="utf-8"?>
<!-- Generator: Adobe Illustrator 16.0.0, SVG Export Plug-In . SVG Version: 6.00 Build 0)  -->
<!DOCTYPE svg PUBLIC "-//W3C//DTD SVG 1.1//EN" "http://www.w3.org/Graphics/SVG/1.1/DTD/svg11.dtd">
<svg version="1.1" id="Layer_1" xmlns="http://www.w3.org/2000/svg" xmlns:xlink="http://www.w3.org/1999/xlink" x="0px" y="0px"
	 width="768px" height="385px" viewBox="0 0 1400 1568" enable-background="new 0 0 1400 1568" xml:space="preserve">
<g>
	<g>
		<rect fill="#FFFFFF" width="1400" height="1568"/>
	</g>
	<g>
		<rect x="1059.4" y="1233.8" fill="#F1F2F2" width="160.5" height="187.1"/>
	</g>
	<g>
		<polygon fill="#F1F2F2" points="659.4,1309.9 604.7,1356.3 659.4,1402.6 835.4,1402.6 835.4,1309.9 		"/>
	</g>
	<g>
		<g>
			<path fill="#A7A9AC" d="M280.7,565.4v44.4c0,16.9,13.8,30.7,30.7,30.7h601c16.9,0,30.7-13.8,30.7-30.7v-44.4H280.7z"/>
			<path d="M912.5,643.4h-601c-18.5,0-33.5-15-33.5-33.5v-44.4c0-1.5,1.3-2.8,2.8-2.8h662.5c1.5,0,2.8,1.3,2.8,2.8v44.4
				C946,628.3,930.9,643.4,912.5,643.4z M283.5,568.2v41.6c0,15.4,12.5,27.9,27.9,27.9h601c15.4,0,27.9-12.5,27.9-27.9v-41.6H283.5z
				"/>
		</g>
		<g>
			<rect x="517.2" y="640.6" fill="#D1D3D4" width="189.5" height="67.4"/>
			<path d="M706.7,710.8H517.2c-1.5,0-2.8-1.3-2.8-2.8v-67.4c0-1.5,1.3-2.8,2.8-2.8h189.5c1.5,0,2.8,1.3,2.8,2.8V708
				C709.5,709.6,708.3,710.8,706.7,710.8z M520,705.2h183.9v-61.8H520V705.2z"/>
		</g>
		<g>
			<line fill="#FFFFFF" x1="473.7" y1="708" x2="750.3" y2="708"/>
			<path d="M750.3,710.8H473.7c-1.5,0-2.8-1.3-2.8-2.8c0-1.5,1.3-2.8,2.8-2.8h276.6c1.5,0,2.8,1.3,2.8,2.8
				C753.1,709.6,751.8,710.8,750.3,710.8z"/>
		</g>
		<g>
			<rect x="280.7" y="207.9" fill="#FFC961" width="662.5" height="357.5"/>
			<path d="M943.2,568.2H280.7c-1.5,0-2.8-1.3-2.8-2.8V207.9c0-1.5,1.3-2.8,2.8-2.8h662.5c1.5,0,2.8,1.3,2.8,2.8v357.5
				C946,567,944.7,568.2,943.2,568.2z M283.5,562.6h656.9V210.7H283.5V562.6z"/>
		</g>
		<g>
			<rect x="280.7" y="147.4" fill="#D1D3D4" width="662.5" height="60.5"/>
			<path d="M943.2,210.7H280.7c-1.5,0-2.8-1.3-2.8-2.8v-60.5c0-1.5,1.3-2.8,2.8-2.8h662.5c1.5,0,2.8,1.3,2.8,2.8v60.5
				C946,209.4,944.7,210.7,943.2,210.7z M283.5,205.1h656.9v-54.9H283.5V205.1z"/>
		</g>
	</g>
	<g>
		<g>
			<polygon fill="#FF796E" points="318.4,626.6 177.4,513.5 177.4,711 459.3,711 459.3,513.5 			"/>
			<path d="M459.3,713.8H177.4c-1.5,0-2.8-1.3-2.8-2.8V513.5c0-1.1,0.6-2.1,1.6-2.5c1-0.5,2.1-0.3,3,0.3L318.4,623l139.2-111.7
				c0.8-0.7,2-0.8,3-0.3c1,0.5,1.6,1.4,1.6,2.5V711C462.1,712.5,460.9,713.8,459.3,713.8z M180.2,708.2h276.3V519.4L320.1,628.8
				c-1,0.8-2.5,0.8-3.5,0L180.2,519.4V708.2z"/>
		</g>
		<g>
			<polygon fill="#FFFFFF" points="459.3,513.5 177.4,513.5 318.4,626.6 			"/>
			<path d="M318.4,629.4c-0.6,0-1.2-0.2-1.8-0.6L175.7,515.7c-0.9-0.7-1.3-2-0.9-3.1c0.4-1.1,1.5-1.9,2.6-1.9h281.9
				c1.2,0,2.2,0.7,2.6,1.9c0.4,1.1,0,2.4-0.9,3.1L320.1,628.8C319.6,629.2,319,629.4,318.4,629.4z M185.4,516.3l133,106.7l133-106.7
				H185.4z"/>
		</g>
	</g>
	<g>
		<rect x="331.1" y="312.3" fill="#1E9EC8" width="561.7" height="200.5"/>
		<path fill="#231F20" d="M892.8,515.6H331.1c-1.5,0-2.8-1.3-2.8-2.8V312.3c0-1.5,1.3-2.8,2.8-2.8h561.7c1.5,0,2.8,1.3,2.8,2.8
			v200.5C895.6,514.3,894.4,515.6,892.8,515.6z M333.9,510H890V315.1H333.9V510z"/>
	</g>
	<g>
		<path fill="#F1F2F2" d="M426.2,370.1c0,17-13.8,30.8-30.8,30.8c-17,0-30.8-13.8-30.8-30.8c0-17,13.8-30.8,30.8-30.8
			C412.4,339.3,426.2,353.1,426.2,370.1z"/>
		<path fill="#231F20" d="M395.4,403.7c-18.5,0-33.6-15.1-33.6-33.6c0-18.5,15.1-33.6,33.6-33.6c18.5,0,33.6,15.1,33.6,33.6
			C429,388.6,413.9,403.7,395.4,403.7z M395.4,342.1c-15.4,0-28,12.6-28,28c0,15.4,12.6,28,28,28c15.4,0,28-12.6,28-28
			C423.4,354.7,410.8,342.1,395.4,342.1z"/>
	</g>
	<g>
		<path fill="#F1F2F2" d="M426.2,455c0,17-13.8,30.8-30.8,30.8c-17,0-30.8-13.8-30.8-30.8c0-17,13.8-30.8,30.8-30.8
			C412.4,424.2,426.2,438,426.2,455z"/>
		<path fill="#231F20" d="M395.4,488.6c-18.5,0-33.6-15.1-33.6-33.6s15.1-33.6,33.6-33.6c18.5,0,33.6,15.1,33.6,33.6
			S413.9,488.6,395.4,488.6z M395.4,427c-15.4,0-28,12.6-28,28c0,15.4,12.6,28,28,28c15.4,0,28-12.6,28-28
			C423.4,439.5,410.8,427,395.4,427z"/>
	</g>
	<g>
		<path fill="#231F20" d="M851.3,358.8H441.6c-1.5,0-2.8-1.3-2.8-2.8c0-1.5,1.3-2.8,2.8-2.8h409.7c1.5,0,2.8,1.3,2.8,2.8
			C854.1,357.5,852.8,358.8,851.3,358.8z"/>
	</g>
	<g>
		<path fill="#231F20" d="M543.3,387.1H441.6c-1.5,0-2.8-1.3-2.8-2.8s1.3-2.8,2.8-2.8h101.7c1.5,0,2.8,1.3,2.8,2.8
			S544.9,387.1,543.3,387.1z"/>
	</g>
	<g>
		<path fill="#231F20" d="M646.4,387.1h-63.2c-1.5,0-2.8-1.3-2.8-2.8s1.3-2.8,2.8-2.8h63.2c1.5,0,2.8,1.3,2.8,2.8
			S648,387.1,646.4,387.1z"/>
	</g>
	<g>
		<path fill="#231F20" d="M851.3,443.6H441.6c-1.5,0-2.8-1.3-2.8-2.8c0-1.5,1.3-2.8,2.8-2.8h409.7c1.5,0,2.8,1.3,2.8,2.8
			C854.1,442.4,852.8,443.6,851.3,443.6z"/>
	</g>
	<g>
		<path fill="#231F20" d="M543.3,471.9H441.6c-1.5,0-2.8-1.3-2.8-2.8c0-1.5,1.3-2.8,2.8-2.8h101.7c1.5,0,2.8,1.3,2.8,2.8
			C546.1,470.7,544.9,471.9,543.3,471.9z"/>
	</g>
	<g>
		<path fill="#231F20" d="M646.4,471.9h-63.2c-1.5,0-2.8-1.3-2.8-2.8c0-1.5,1.3-2.8,2.8-2.8h63.2c1.5,0,2.8,1.3,2.8,2.8
			C649.2,470.7,648,471.9,646.4,471.9z"/>
	</g>
	<g>
		<g>
			<path fill="#939598" d="M628.3,403.5c-24.9,0-45.1,20.2-45.1,45.1v345.5c0,24.9,20.2,45.1,45.1,45.1h12.3V403.5H628.3z"/>
			<path d="M640.6,842h-12.3c-26.4,0-47.9-21.5-47.9-47.9V448.6c0-26.4,21.5-47.9,47.9-47.9h12.3c1.5,0,2.8,1.3,2.8,2.8v435.7
				C643.4,840.7,642.2,842,640.6,842z M628.3,406.3c-23.3,0-42.3,19-42.3,42.3v345.5c0,23.3,19,42.3,42.3,42.3h9.5V406.3H628.3z"/>
		</g>
		<g>
			<rect x="640.6" y="403.5" fill="#75D1FF" width="506.7" height="435.7"/>
			<path d="M1147.3,842H640.6c-1.5,0-2.8-1.3-2.8-2.8V403.5c0-1.5,1.3-2.8,2.8-2.8h506.7c1.5,0,2.8,1.3,2.8,2.8v435.7
				C1150.1,840.7,1148.9,842,1147.3,842z M643.4,836.4h501.1V406.3H643.4V836.4z"/>
		</g>
		<g>
			<path fill="#939598" d="M1169.2,403.5h-21.9v435.7h21.9c24.9,0,45.1-20.2,45.1-45.1V448.6
				C1214.2,423.7,1194.1,403.5,1169.2,403.5z"/>
			<path d="M1169.2,842h-21.9c-1.5,0-2.8-1.3-2.8-2.8V403.5c0-1.5,1.3-2.8,2.8-2.8h21.9c26.4,0,47.9,21.5,47.9,47.9v345.5
				C1217,820.5,1195.6,842,1169.2,842z M1150.1,836.4h19.1c23.3,0,42.3-19,42.3-42.3V448.6c0-23.3-19-42.3-42.3-42.3h-19.1V836.4z"
				/>
		</g>
		<g>
			<g>
				<path fill="#FFFFFF" d="M713.5,327.6v0.4C713.5,327.9,713.6,327.8,713.5,327.6L713.5,327.6z"/>
				<path d="M713.5,331c-1.5,0-2.8-1.3-2.8-2.9v-0.4c0-1.5,1.3-2.8,2.8-2.8s2.8,1.3,2.8,2.8c0,0.1,0,0.5,0,0.6
					C716.3,329.8,715.1,331,713.5,331z"/>
			</g>
			<g>
				<path fill="#F1F2F2" d="M778.9,352.9c16.1,0,29.6-10.7,34.2-25.2c1.1-3.4,1.8-7,1.8-10.8c0-24.9-20.2-45.1-45.1-45.1
					c-31,0-56,25-56.3,55.9c0,0.1,0,0.3,0,0.4v511.1h359.2V352.9H778.9z"/>
				<path d="M1072.7,842H713.5c-1.5,0-2.8-1.3-2.8-2.8V328.1c0-0.1,0-0.5,0-0.6c0.3-32.2,26.8-58.5,59.1-58.5
					c26.4,0,47.9,21.5,47.9,47.9c0,3.6-0.6,7.5-2,11.7c-2.9,9.3-9,16.8-16.9,21.6h273.8c1.5,0,2.8,1.3,2.8,2.8v486.3
					C1075.5,840.7,1074.3,842,1072.7,842z M716.3,836.4h353.6V355.7h-291c-1.5,0-2.8-1.3-2.8-2.8c0-1.5,1.3-2.8,2.8-2.8
					c14.5,0,27.1-9.4,31.5-23.3c1.2-3.7,1.7-6.9,1.7-10c0-23.3-19-42.3-42.3-42.3c-29.2,0-53.2,23.8-53.5,53.1c0,0.1,0,0.4,0,0.6
					L716.3,836.4z"/>
			</g>
			<g>
				<path fill="#FFFFFF" d="M1129,271.7H769.8c24.9,0,45.1,20.2,45.1,45.1c0,3.8-0.7,7.4-1.8,10.8c-4.6,14.6-18.1,25.2-34.2,25.2
					h293.8h65.3c19.9,0,36-16.1,36-36.1C1174.1,291.9,1153.9,271.7,1129,271.7z"/>
				<path d="M1138.1,355.7H778.9c-1.5,0-2.8-1.3-2.8-2.8c0-1.5,1.3-2.8,2.8-2.8c14.5,0,27.1-9.4,31.5-23.3c1.2-3.7,1.7-6.9,1.7-10
					c0-23.3-19-42.3-42.3-42.3c-1.5,0-2.8-1.3-2.8-2.8c0-1.5,1.3-2.8,2.8-2.8H1129c26.4,0,47.9,21.5,47.9,47.9
					C1176.9,338.2,1159.5,355.7,1138.1,355.7z M798.9,350.1h339.2c18.3,0,33.2-14.9,33.2-33.3c0-23.3-19-42.3-42.3-42.3H792.3
					c15.1,8.1,25.4,24,25.4,42.3c0,3.6-0.6,7.5-2,11.7C812.8,337.8,806.7,345.3,798.9,350.1z"/>
			</g>
		</g>
		<g>
			<circle fill="#FFFFFF" cx="1180.8" cy="621.4" r="16.7"/>
			<path d="M1180.8,640.9c-10.8,0-19.5-8.8-19.5-19.5c0-10.8,8.8-19.5,19.5-19.5c10.8,0,19.5,8.8,19.5,19.5
				C1200.3,632.1,1191.5,640.9,1180.8,640.9z M1180.8,607.4c-7.7,0-13.9,6.2-13.9,13.9c0,7.7,6.2,13.9,13.9,13.9
				c7.7,0,13.9-6.2,13.9-13.9C1194.7,613.7,1188.5,607.4,1180.8,607.4z"/>
		</g>
	</g>
	<g>
		<path d="M331.4,288.8c-1.5,0-2.8-1.3-2.8-2.8v-48.5c0-1.5,1.3-2.8,2.8-2.8c1.5,0,2.8,1.3,2.8,2.8V286
			C334.2,287.5,332.9,288.8,331.4,288.8z"/>
	</g>
	<g>
		<path d="M360.8,288.8c-1.5,0-2.8-1.3-2.8-2.8v-48.5c0-1.5,1.3-2.8,2.8-2.8c1.5,0,2.8,1.3,2.8,2.8V286
			C363.6,287.5,362.4,288.8,360.8,288.8z"/>
	</g>
	<g>
		<path d="M390.3,288.8c-1.5,0-2.8-1.3-2.8-2.8v-48.5c0-1.5,1.3-2.8,2.8-2.8c1.5,0,2.8,1.3,2.8,2.8V286
			C393.1,287.5,391.8,288.8,390.3,288.8z"/>
	</g>
	<g>
		<path d="M419.7,288.8c-1.5,0-2.8-1.3-2.8-2.8v-48.5c0-1.5,1.3-2.8,2.8-2.8c1.5,0,2.8,1.3,2.8,2.8V286
			C422.5,287.5,421.3,288.8,419.7,288.8z"/>
	</g>
	<g>
		<path fill="#FFFFFF" d="M624.5,177.6c0,6.9-5.6,12.5-12.6,12.5s-12.5-5.6-12.5-12.5c0-6.9,5.6-12.6,12.5-12.6
			S624.5,170.7,624.5,177.6z"/>
		<path d="M612,193c-8.5,0-15.4-6.9-15.4-15.3c0-8.5,6.9-15.4,15.4-15.4s15.4,6.9,15.4,15.4C627.3,186.1,620.4,193,612,193z
			 M612,167.9c-5.4,0-9.8,4.4-9.8,9.8c0,5.4,4.4,9.7,9.8,9.7s9.7-4.4,9.7-9.7C621.7,172.3,617.3,167.9,612,167.9z"/>
	</g>
	<g>
		<path fill="#FFFFFF" d="M843.8,506.2c0,6.2,5,11.2,11.2,11.2h159.6c6.2,0,11.2-5,11.2-11.2v-87.7c0-6.2-5-11.2-11.2-11.2H855
			c-6.2,0-11.2,5-11.2,11.2V506.2z"/>
	</g>
	<g>
		<path fill="#FF796E" d="M1018.4,483.4V415c0-6.2-5-11.2-11.2-11.2H847.6c-6.2,0-11.2,5-11.2,11.2v87.7c0,6.2,5,11.2,11.2,11.2H995
			h12.1h36.4L1018.4,483.4z"/>
		<path d="M1043.6,516.7h-196c-7.7,0-14-6.3-14-14V415c0-7.7,6.3-14,14-14h159.6c7.7,0,14,6.3,14,14v67.5l24.6,29.7
			c0.7,0.8,0.8,2,0.4,3C1045.6,516.1,1044.7,516.7,1043.6,516.7z M847.6,406.6c-4.6,0-8.4,3.8-8.4,8.4v87.7c0,4.6,3.8,8.4,8.4,8.4
			h190.1l-21.4-25.9c-0.4-0.5-0.6-1.1-0.6-1.8V415c0-4.6-3.8-8.4-8.4-8.4H847.6z"/>
	</g>
	<g>
		<path fill="#FF796E" d="M1018.4,761.2v-68.5c0-6.2-5-11.2-11.2-11.2H847.6c-6.2,0-11.2,5-11.2,11.2v87.7c0,6.2,5,11.2,11.2,11.2
			H995h12.1h36.4L1018.4,761.2z"/>
		<path d="M1043.6,794.5h-196c-7.7,0-14-6.3-14-14v-87.7c0-7.7,6.3-14,14-14h159.6c7.7,0,14,6.3,14,14v67.5l24.6,29.7
			c0.7,0.8,0.8,2,0.4,3C1045.6,793.8,1044.7,794.5,1043.6,794.5z M847.6,684.3c-4.6,0-8.4,3.8-8.4,8.4v87.7c0,4.6,3.8,8.4,8.4,8.4
			h190.1l-21.4-25.9c-0.4-0.5-0.6-1.1-0.6-1.8v-68.5c0-4.6-3.8-8.4-8.4-8.4H847.6z"/>
	</g>
	<g>
		<path fill="#FFC961" d="M775.5,622.3v-68.5c0-6.2,5-11.2,11.2-11.2h159.6c6.2,0,11.2,5,11.2,11.2v87.7c0,6.2-5,11.2-11.2,11.2
			H798.8h-12.1h-36.4L775.5,622.3z"/>
		<path d="M946.3,655.6h-196c-1.1,0-2.1-0.6-2.5-1.6c-0.5-1-0.3-2.1,0.4-3l24.6-29.7v-67.5c0-7.7,6.3-14,14-14h159.6
			c7.7,0,14,6.3,14,14v87.7C960.3,649.3,954,655.6,946.3,655.6z M756.2,650h190c4.6,0,8.4-3.8,8.4-8.4v-87.7c0-4.6-3.8-8.4-8.4-8.4
			H786.7c-4.6,0-8.4,3.8-8.4,8.4v68.5c0,0.7-0.2,1.3-0.6,1.8L756.2,650z"/>
	</g>
	<g>
		<path d="M992.2,434.4H860.6c-1.5,0-2.8-1.3-2.8-2.8s1.3-2.8,2.8-2.8h131.6c1.5,0,2.8,1.3,2.8,2.8S993.8,434.4,992.2,434.4z"/>
	</g>
	<g>
		<path d="M992.2,461.6H860.6c-1.5,0-2.8-1.3-2.8-2.8c0-1.5,1.3-2.8,2.8-2.8h131.6c1.5,0,2.8,1.3,2.8,2.8
			C995,460.4,993.8,461.6,992.2,461.6z"/>
	</g>
	<g>
		<path d="M992.2,488.9H860.6c-1.5,0-2.8-1.3-2.8-2.8c0-1.5,1.3-2.8,2.8-2.8h131.6c1.5,0,2.8,1.3,2.8,2.8
			C995,487.6,993.8,488.9,992.2,488.9z"/>
	</g>
	<g>
		<path d="M992.2,713.8H860.6c-1.5,0-2.8-1.3-2.8-2.8s1.3-2.8,2.8-2.8h131.6c1.5,0,2.8,1.3,2.8,2.8S993.8,713.8,992.2,713.8z"/>
	</g>
	<g>
		<path d="M992.2,741H860.6c-1.5,0-2.8-1.3-2.8-2.8c0-1.5,1.3-2.8,2.8-2.8h131.6c1.5,0,2.8,1.3,2.8,2.8
			C995,739.7,993.8,741,992.2,741z"/>
	</g>
	<g>
		<path d="M992.2,768.3H860.6c-1.5,0-2.8-1.3-2.8-2.8c0-1.5,1.3-2.8,2.8-2.8h131.6c1.5,0,2.8,1.3,2.8,2.8
			C995,767,993.8,768.3,992.2,768.3z"/>
	</g>
	<g>
		<path d="M933.3,573.3H801.7c-1.5,0-2.8-1.3-2.8-2.8s1.3-2.8,2.8-2.8h131.6c1.5,0,2.8,1.3,2.8,2.8S934.8,573.3,933.3,573.3z"/>
	</g>
	<g>
		<path d="M933.3,600.5H801.7c-1.5,0-2.8-1.3-2.8-2.8s1.3-2.8,2.8-2.8h131.6c1.5,0,2.8,1.3,2.8,2.8S934.8,600.5,933.3,600.5z"/>
	</g>
	<g>
		<path d="M933.3,627.8H801.7c-1.5,0-2.8-1.3-2.8-2.8c0-1.5,1.3-2.8,2.8-2.8h131.6c1.5,0,2.8,1.3,2.8,2.8
			C936.1,626.5,934.8,627.8,933.3,627.8z"/>
	</g>
	<g>
		<path d="M280.7,461.6H132.2c-1.5,0-2.8-1.3-2.8-2.8c0-1.5,1.3-2.8,2.8-2.8h148.5c1.5,0,2.8,1.3,2.8,2.8
			C283.5,460.4,282.3,461.6,280.7,461.6z"/>
	</g>
	<g>
		<path d="M280.7,395.2H198c-1.5,0-2.8-1.3-2.8-2.8c0-1.5,1.3-2.8,2.8-2.8h82.7c1.5,0,2.8,1.3,2.8,2.8
			C283.5,393.9,282.3,395.2,280.7,395.2z"/>
	</g>
	<g>
		<path d="M280.7,328.7H219c-1.5,0-2.8-1.3-2.8-2.8s1.3-2.8,2.8-2.8h61.7c1.5,0,2.8,1.3,2.8,2.8S282.3,328.7,280.7,328.7z"/>
	</g>
	<g>
		<path d="M1025.8,210.7h-82.6c-1.5,0-2.8-1.3-2.8-2.8c0-1.5,1.3-2.8,2.8-2.8h82.6c1.5,0,2.8,1.3,2.8,2.8
			C1028.6,209.4,1027.4,210.7,1025.8,210.7z"/>
	</g>
	<g>
		<path d="M1089.8,210.7h-29.4c-1.5,0-2.8-1.3-2.8-2.8c0-1.5,1.3-2.8,2.8-2.8h29.4c1.5,0,2.8,1.3,2.8,2.8
			C1092.6,209.4,1091.3,210.7,1089.8,210.7z"/>
	</g>
	<g>
		<g>
			<g>
				<path fill="#A7A9AC" d="M167.7,1312.2c0,24.2,19.8,44,44,44h232.2c24.2,0,44-19.8,44-44v-37H167.7V1312.2z"/>
				<path d="M443.9,1359.1H211.7c-25.8,0-46.8-21-46.8-46.8v-37c0-1.5,1.3-2.8,2.8-2.8H488c1.5,0,2.8,1.3,2.8,2.8v37
					C490.8,1338,469.7,1359.1,443.9,1359.1z M170.5,1278v34.2c0,22.7,18.5,41.2,41.2,41.2h232.2c22.7,0,41.2-18.5,41.2-41.2V1278
					H170.5z"/>
			</g>
			<g>
				<path fill="#D1D3D4" d="M488,839.2c0-24.2-19.8-44-44-44H211.7c-24.2,0-44,19.8-44,44v32H488V839.2z"/>
				<path d="M488,874.1H167.7c-1.6,0-2.8-1.3-2.8-2.8v-32c0-25.8,21-46.8,46.8-46.8h232.2c25.8,0,46.8,21,46.8,46.8v32
					C490.8,872.8,489.5,874.1,488,874.1z M170.5,868.5h314.7v-29.2c0-22.7-18.5-41.2-41.2-41.2H211.7c-22.7,0-41.2,18.5-41.2,41.2
					V868.5z"/>
			</g>
			<g>
				<rect x="167.7" y="871.3" fill="#FF796E" width="320.2" height="404"/>
				<path d="M488,1278H167.7c-1.6,0-2.8-1.3-2.8-2.8v-404c0-1.5,1.3-2.8,2.8-2.8H488c1.5,0,2.8,1.3,2.8,2.8v404
					C490.8,1276.8,489.5,1278,488,1278z M170.5,1272.4h314.7V874.1H170.5V1272.4z"/>
			</g>
		</g>
		<g>
			<path fill="#FFFFFF" d="M349.2,1315.7c0,11.8-9.6,21.4-21.4,21.4c-11.8,0-21.4-9.6-21.4-21.4c0-11.8,9.6-21.4,21.4-21.4
				C339.7,1294.3,349.2,1303.9,349.2,1315.7z"/>
			<path d="M327.8,1339.9c-13.3,0-24.2-10.9-24.2-24.2c0-13.3,10.9-24.2,24.2-24.2c13.3,0,24.2,10.9,24.2,24.2
				C352,1329.1,341.2,1339.9,327.8,1339.9z M327.8,1297.1c-10.3,0-18.6,8.3-18.6,18.6c0,10.3,8.3,18.6,18.6,18.6
				c10.3,0,18.6-8.3,18.6-18.6C346.4,1305.5,338.1,1297.1,327.8,1297.1z"/>
		</g>
		<g>
			<path d="M367.9,838.8h-80.2c-1.5,0-2.8-1.3-2.8-2.8c0-1.5,1.3-2.8,2.8-2.8h80.2c1.5,0,2.8,1.3,2.8,2.8
				C370.7,837.6,369.5,838.8,367.9,838.8z"/>
		</g>
	</g>
	<g>
		<path fill="#1E9EC8" d="M949.1,970.6H713.9c-12.3,0-22.4,10.1-22.4,22.4v200.2c0,12.3,10.1,22.4,22.4,22.4h91.2l93.8,45.6
			l-11-45.6h61.2c12.3,0,22.4-10.1,22.4-22.4V993C971.5,980.7,961.4,970.6,949.1,970.6z"/>
		<path fill="#231F20" d="M898.9,1264c-0.4,0-0.8-0.1-1.2-0.3l-93.2-45.3h-90.6c-13.9,0-25.2-11.3-25.2-25.2V993
			c0-13.9,11.3-25.2,25.2-25.2h235.2c13.9,0,25.2,11.3,25.2,25.2v200.2c0,13.9-11.3,25.2-25.2,25.2h-57.6l10,41.4
			c0.2,0.4,0.4,0.9,0.4,1.4c0,1.5-1.3,2.8-2.8,2.8C899,1264,898.9,1264,898.9,1264z M713.9,973.4c-10.8,0-19.6,8.8-19.6,19.6v200.2
			c0,10.8,8.8,19.6,19.6,19.6h91.2c0.4,0,0.8,0.1,1.2,0.3l88.5,43l-9.6-39.9c-0.2-0.8,0-1.7,0.5-2.4c0.5-0.7,1.3-1.1,2.2-1.1h61.2
			c10.8,0,19.6-8.8,19.6-19.6V993c0-10.8-8.8-19.6-19.6-19.6H713.9z"/>
	</g>
	<g>
		<path fill="#FFFFFF" d="M802.8,900.6H567.6c-12.3,0-22.4,10.1-22.4,22.4v200.2c0,12.3,10.1,22.4,22.4,22.4h29.9l-0.9,52.3
			l63.9-52.3h142.4c12.3,0,22.4-10.1,22.4-22.4V923C825.2,910.7,815.1,900.6,802.8,900.6z"/>
		<path d="M596.5,1200.6c-0.4,0-0.8-0.1-1.2-0.3c-1-0.5-1.6-1.5-1.6-2.6l0.9-49.4h-27c-13.9,0-25.2-11.3-25.2-25.2V923
			c0-13.9,11.3-25.2,25.2-25.2h235.2c13.9,0,25.2,11.3,25.2,25.2v200.2c0,13.9-11.3,25.2-25.2,25.2H661.4l-63.1,51.6
			C597.8,1200.4,597.1,1200.6,596.5,1200.6z M567.6,903.4c-10.8,0-19.6,8.8-19.6,19.6v200.2c0,10.8,8.8,19.6,19.6,19.6h29.9
			c0.8,0,1.5,0.3,2,0.8c0.5,0.5,0.8,1.3,0.8,2l-0.8,46.2l59.2-48.4c0.5-0.4,1.1-0.6,1.8-0.6h142.4c10.8,0,19.6-8.8,19.6-19.6V923
			c0-10.8-8.8-19.6-19.6-19.6H567.6z"/>
	</g>
	<g>
		<path d="M287.7,1411.6h-59.6c-1.5,0-2.8-1.3-2.8-2.8s1.3-2.8,2.8-2.8h59.6c1.5,0,2.8,1.3,2.8,2.8S289.3,1411.6,287.7,1411.6z"/>
	</g>
	<g>
		<path d="M448.1,1411.6H334.2c-1.5,0-2.8-1.3-2.8-2.8s1.3-2.8,2.8-2.8h113.9c1.5,0,2.8,1.3,2.8,2.8S449.7,1411.6,448.1,1411.6z"/>
	</g>
	<g>
		<path fill="#FFFFFF" d="M248.4,914.8c72.2,0,130.7,49.6,130.7,110.9c0,28-12.2,53.5-32.3,73c1.4,19.6,5.9,32.5,24.9,53.8
			c0,0-48.5,7.7-79.1-22.4c-13.8,4.2-28.6,6.5-44.1,6.5c-72.2,0-130.7-49.6-130.7-110.9C117.8,964.4,176.3,914.8,248.4,914.8z"/>
		<path d="M357.6,1156.1c-15.6,0-44.6-3-65.8-22.9c-13.9,4.1-28.5,6.1-43.4,6.1c-73.6,0-133.5-51-133.5-113.7
			C115,963,174.8,912,248.4,912c73.6,0,133.5,51,133.5,113.7c0,27.2-11.4,53.4-32.2,74c1.5,17.7,5.7,30.1,24.1,50.8
			c0.7,0.8,0.9,1.8,0.5,2.8c-0.3,1-1.2,1.7-2.2,1.8C371.8,1155.2,366.2,1156.1,357.6,1156.1z M292.5,1127.2c0.7,0,1.4,0.3,2,0.8
			c19.9,19.5,48.1,22.4,63.1,22.4c3.3,0,6.2-0.1,8.4-0.3c-16.8-20-20.7-33.3-22-51.4c-0.1-0.8,0.2-1.6,0.8-2.2
			c20.3-19.7,31.5-44.9,31.5-71c0-59.6-57.4-108.1-127.9-108.1c-70.5,0-127.9,48.5-127.9,108.1c0,59.6,57.4,108.1,127.9,108.1
			c14.9,0,29.4-2.1,43.3-6.4C292,1127.3,292.3,1127.2,292.5,1127.2z"/>
	</g>
	<g>
		<path fill="#1E9EC8" d="M295,1027c0,11.8,9.6,21.4,21.4,21.4c11.8,0,21.4-9.6,21.4-21.4c0-11.8-9.6-21.4-21.4-21.4
			C304.6,1005.6,295,1015.2,295,1027z"/>
		<path fill="#231F20" d="M316.4,1051.2c-13.3,0-24.2-10.9-24.2-24.2c0-13.3,10.9-24.2,24.2-24.2c13.3,0,24.2,10.9,24.2,24.2
			C340.6,1040.4,329.8,1051.2,316.4,1051.2z M316.4,1008.4c-10.3,0-18.6,8.3-18.6,18.6s8.3,18.6,18.6,18.6
			c10.3,0,18.6-8.3,18.6-18.6S326.7,1008.4,316.4,1008.4z"/>
	</g>
	<g>
		<path fill="#1E9EC8" d="M227,1027c0,11.8,9.6,21.4,21.4,21.4c11.8,0,21.4-9.6,21.4-21.4c0-11.8-9.6-21.4-21.4-21.4
			C236.6,1005.6,227,1015.2,227,1027z"/>
		<path fill="#231F20" d="M248.4,1051.2c-13.3,0-24.2-10.9-24.2-24.2c0-13.3,10.9-24.2,24.2-24.2c13.3,0,24.2,10.9,24.2,24.2
			C272.6,1040.4,261.8,1051.2,248.4,1051.2z M248.4,1008.4c-10.3,0-18.6,8.3-18.6,18.6s8.3,18.6,18.6,18.6
			c10.3,0,18.6-8.3,18.6-18.6S258.7,1008.4,248.4,1008.4z"/>
	</g>
	<g>
		<path fill="#1E9EC8" d="M159,1027c0,11.8,9.6,21.4,21.4,21.4s21.4-9.6,21.4-21.4c0-11.8-9.6-21.4-21.4-21.4S159,1015.2,159,1027z"
			/>
		<path fill="#231F20" d="M180.4,1051.2c-13.3,0-24.2-10.9-24.2-24.2c0-13.3,10.9-24.2,24.2-24.2c13.3,0,24.2,10.9,24.2,24.2
			C204.6,1040.4,193.8,1051.2,180.4,1051.2z M180.4,1008.4c-10.3,0-18.6,8.3-18.6,18.6s8.3,18.6,18.6,18.6
			c10.3,0,18.6-8.3,18.6-18.6S190.7,1008.4,180.4,1008.4z"/>
	</g>
	<g>
		<path d="M1234.1,1176.9h-196c-1.5,0-2.8-1.3-2.8-2.8V931.6c0-1.5,1.3-2.8,2.8-2.8h196c1.6,0,2.8,1.3,2.8,2.8v242.6
			C1236.9,1175.7,1235.7,1176.9,1234.1,1176.9z M1040.9,1171.3h190.4v-237h-190.4V1171.3z"/>
	</g>
	<g>
		<g>
			<polygon fill="#F1F2F2" points="1136.1,1138.6 1167,1074.2 1105.2,1074.2 			"/>
			<path d="M1136.1,1141.4L1136.1,1141.4c-1.1,0-2.1-0.6-2.5-1.6l-30.9-64.4c-0.4-0.9-0.4-1.9,0.2-2.7c0.5-0.8,1.4-1.3,2.4-1.3h61.9
				c1,0,1.9,0.5,2.4,1.3c0.5,0.8,0.6,1.8,0.2,2.7l-30.9,64.4C1138.2,1140.8,1137.2,1141.4,1136.1,1141.4z M1109.6,1077l26.5,55.1
				l26.5-55.1H1109.6z"/>
		</g>
		<g>
			<rect x="1105.2" y="884.7" fill="#FFC961" width="61.9" height="189.5"/>
			<path d="M1167,1077h-61.9c-1.5,0-2.8-1.3-2.8-2.8V884.7c0-1.5,1.3-2.8,2.8-2.8h61.9c1.5,0,2.8,1.3,2.8,2.8v189.5
				C1169.8,1075.8,1168.6,1077,1167,1077z M1108,1071.4h56.3V887.5H1108V1071.4z"/>
		</g>
	</g>
	<g>
		<path d="M814,1386.3H638c-0.7,0-1.3-0.2-1.8-0.7l-54.7-46.3c-0.6-0.5-1-1.3-1-2.1c0-0.8,0.4-1.6,1-2.1l54.7-46.3
			c0.5-0.4,1.1-0.7,1.8-0.7h176c1.5,0,2.8,1.3,2.8,2.8v92.7C816.8,1385,815.5,1386.3,814,1386.3z M639,1380.7h172.2v-87.1H639
			l-51.4,43.5L639,1380.7z"/>
	</g>
	<g>
		<path d="M1169.6,1141.4h-66.9c-1.5,0-2.8-1.3-2.8-2.8c0-1.5,1.3-2.8,2.8-2.8h66.9c1.5,0,2.8,1.3,2.8,2.8
			C1172.4,1140.1,1171.1,1141.4,1169.6,1141.4z"/>
	</g>
	<g>
		<path d="M1148.6,1079.8c-1.5,0-2.8-1.3-2.8-2.8v-91c0-1.5,1.3-2.8,2.8-2.8c1.5,0,2.8,1.3,2.8,2.8v91
			C1151.4,1078.5,1150.1,1079.8,1148.6,1079.8z"/>
	</g>
	<g>
		<g>
			<path d="M679.5,1305.8l-24.2,62.8h5.2l7.9-20.6h26.7l7.8,20.6h5.2l-23.8-62.8H679.5z M670.3,1343.1l11.6-29.8l11.3,29.8H670.3z"
				/>
		</g>
		<g>
			<rect x="707.8" y="1343.4" width="24.6" height="4.6"/>
		</g>
		<g>
			<polygon points="740.5,1363.8 778.1,1310.4 778.3,1310.1 778.3,1305.8 737.5,1305.8 737.5,1310.6 772,1310.6 734.4,1364 
				734.2,1364.3 734.2,1368.5 779.4,1368.5 779.4,1363.8 			"/>
		</g>
	</g>
	<g>
		<rect x="863" y="1295.7" fill="#FF796E" width="39.9" height="82.9"/>
		<path d="M902.9,1381.4H863c-1.5,0-2.8-1.3-2.8-2.8v-82.9c0-1.5,1.3-2.8,2.8-2.8h39.9c1.5,0,2.8,1.3,2.8,2.8v82.9
			C905.7,1380.2,904.4,1381.4,902.9,1381.4z M865.8,1375.8h34.3v-77.3h-34.3V1375.8z"/>
	</g>
	<g>
		<rect x="938.8" y="1295.7" fill="#FFC961" width="39.9" height="82.9"/>
		<path d="M978.7,1381.4h-39.9c-1.5,0-2.8-1.3-2.8-2.8v-82.9c0-1.5,1.3-2.8,2.8-2.8h39.9c1.5,0,2.8,1.3,2.8,2.8v82.9
			C981.5,1380.2,980.2,1381.4,978.7,1381.4z M941.6,1375.8h34.3v-77.3h-34.3V1375.8z"/>
	</g>
	<g>
		<path fill="#75D1FF" d="M779.4,1034c0,52-42.2,94.2-94.2,94.2c-52,0-94.2-42.2-94.2-94.2c0-52,42.2-94.2,94.2-94.2
			C737.2,939.9,779.4,982,779.4,1034z"/>
	</g>
	<g>
		<g>
			<path d="M685.2,1070.5c-24,0-43.4-19.5-43.4-43.5c0-24,19.5-43.4,43.4-43.4c24,0,43.4,19.5,43.4,43.4
				C728.6,1051,709.1,1070.5,685.2,1070.5z M685.2,989.2c-20.9,0-37.8,17-37.8,37.8c0,20.9,17,37.9,37.8,37.9
				c20.9,0,37.8-17,37.8-37.9C723,1006.1,706,989.2,685.2,989.2z"/>
		</g>
		<g>
			<path d="M685.2,1094.9c-37.4,0-67.9-30.5-67.9-67.9c0-37.4,30.5-67.9,67.9-67.9c37.4,0,67.9,30.5,67.9,67.9v31.3
				c0,7.8-6.4,14.2-14.2,14.2h-1.7c-7.8,0-14.2-6.4-14.2-14.2V1027c0-1.5,1.3-2.8,2.8-2.8c1.5,0,2.8,1.3,2.8,2.8v31.3
				c0,4.7,3.9,8.6,8.6,8.6h1.7c4.7,0,8.6-3.8,8.6-8.6V1027c0-34.3-27.9-62.3-62.3-62.3c-34.3,0-62.3,27.9-62.3,62.3
				c0,34.4,27.9,62.3,62.3,62.3c1.5,0,2.8,1.3,2.8,2.8C688,1093.7,686.7,1094.9,685.2,1094.9z"/>
		</g>
	</g>
	<g>
		<path d="M1234.1,1236.6h-98c-1.6,0-2.8-1.3-2.8-2.8c0-1.5,1.3-2.8,2.8-2.8h98c1.6,0,2.8,1.3,2.8,2.8
			C1236.9,1235.3,1235.7,1236.6,1234.1,1236.6z"/>
	</g>
	<g>
		<path d="M1094,1236.6h-55.9c-1.5,0-2.8-1.3-2.8-2.8c0-1.5,1.3-2.8,2.8-2.8h55.9c1.5,0,2.8,1.3,2.8,2.8
			C1096.8,1235.3,1095.5,1236.6,1094,1236.6z"/>
	</g>
	<g>
		<path d="M1197.5,1287h-159.4c-1.5,0-2.8-1.3-2.8-2.8c0-1.5,1.3-2.8,2.8-2.8h159.4c1.5,0,2.8,1.3,2.8,2.8
			C1200.3,1285.7,1199,1287,1197.5,1287z"/>
	</g>
	<g>
		<path d="M1132.2,1337.4h-94.1c-1.5,0-2.8-1.3-2.8-2.8c0-1.5,1.3-2.8,2.8-2.8h94.1c1.6,0,2.8,1.3,2.8,2.8
			C1135,1336.1,1133.8,1337.4,1132.2,1337.4z"/>
	</g>
	<g>
		<path d="M1132.2,1386.3h-94.1c-1.5,0-2.8-1.3-2.8-2.8c0-1.5,1.3-2.8,2.8-2.8h94.1c1.6,0,2.8,1.3,2.8,2.8
			C1135,1385,1133.8,1386.3,1132.2,1386.3z"/>
	</g>
	<g>
		<path d="M1234.1,1337.4h-59.4c-1.5,0-2.8-1.3-2.8-2.8c0-1.5,1.3-2.8,2.8-2.8h59.4c1.6,0,2.8,1.3,2.8,2.8
			C1236.9,1336.1,1235.7,1337.4,1234.1,1337.4z"/>
	</g>
</g>
</svg>
